<?xml version="1.0" encoding="utf-8"?>
<!-- Generator: Adobe Illustrator 23.1.1, SVG Export Plug-In . SVG Version: 6.00 Build 0)  -->
<svg version="1.1" id="Layer_1" xmlns="http://www.w3.org/2000/svg" xmlns:xlink="http://www.w3.org/1999/xlink" x="0px" y="0px"
	 viewBox="0 0 196.96 34.45" style="enable-background:new 0 0 196.96 34.45;" xml:space="preserve">
<g>
	<path style="fill:#12630e;" d="M34.03,34.45c-4.99,0-7.07-2.73-7.07-7.17V19h-5.13l-0.09,2.64c-0.32,9.76-6.29,12.81-12.3,12.81
		C3.19,34.45,0,30.42,0,25.61c0-5.64,3.93-8.09,7.17-8.09c2.5,0,4.95,1.43,4.95,4.9c0,3.1-2.08,4.58-4.67,4.58
		c-2.77,0-4.62-1.85-4.62-4.21c0-1.16,0.46-2.4,1.3-3.28c-1.71,1.16-3.05,3.38-3.05,6.33c0,5.23,3.65,7.72,7.72,7.72
		c3.79,0,5.69-2.08,5.87-8.69l0.28-8.97C15.4,0.92,21.69,0.23,28.99,0.23h6.75v28.39c0,2.08,0.65,3.37,2.08,3.37
		c2.82,0,4.95-4.99,6.06-10.22l0.51,0.09C42.82,29.18,40.83,34.45,34.03,34.45z M21.82,18.26h5.13V1.11h-0.69
		c-3.33,0-3.88,0.88-4.16,9.34L21.82,18.26z"/>
	<path style="fill:#12630e;" d="M41.98,21.82V0h2.4c4.58,0,6.29,1.62,6.29,5.41c-0.05,0-0.09,20.25-0.09,20.9
		c0,4.86,1.3,6.8,3.93,6.8c3.33,0,5.64-3.19,6.75-5.92h-0.51c-4.21,0-7.31-3.1-7.31-9.85c0-5.18,2.54-7.4,5.04-7.4
		c2.64,0,4.85,2.17,4.85,9.39c0,2.54-0.37,4.95-1.11,7.07c2.82-0.42,6.01-2.4,8.23-8.92l0.6,0.18c-2.45,7.26-5.83,9.16-9.11,9.48
		c-1.71,4.35-4.95,7.3-9.66,7.3C45.49,34.45,41.98,30.24,41.98,21.82z"/>
	<path style="fill:#12630e;" d="M90.39,22.19c0,7.4-5.22,12.21-11.93,12.21c-6.7,0-11.98-4.81-11.98-12.21
		c0-7.35,5.27-12.25,11.98-12.25C85.17,9.94,90.39,14.84,90.39,22.19z M81.28,22.19c0-9.66-1.3-11.61-2.82-11.61
		c-1.53,0-2.87,1.85-2.87,11.61c0,9.75,1.34,11.56,2.87,11.56C79.99,33.75,81.28,31.86,81.28,22.19z"/>
	<path style="fill:#12630e;" d="M123.31,21.36c-1.62,6.8-3.51,13.08-10.4,13.08c-3.75,0-5.59-1.85-6.01-5.27
		c-0.92,2.82-3.01,5.27-6.38,5.27c-4.95,0-6.84-2.31-6.84-7.95V10.63h3.38c4.58,0,5.27,1.57,5.27,5.36v12.39
		c0,2.54,0.79,3.1,1.76,3.1c1.53,0,2.64-2.82,2.73-5.73V10.63h8.74v18.96c0,1.48,0.42,2.5,1.62,2.5c1.94,0,4.3-4.48,5.64-10.82
		L123.31,21.36z"/>
	<path style="fill:#12630e;" d="M133.52,11.56h-3.42V30.7c0,1.06,0.23,1.9,1.39,1.9c2.13,0,4.86-4.9,6.06-11.24l0.6,0.18
		c-1.16,5.13-3.15,12.9-9.57,12.9c-4.02,0-7.03-1.2-7.12-7.12V11.56h-2.82v-0.92h2.82V2.87h2.45c4.58,0,6.19,1.62,6.19,5.41v2.36
		h3.42V11.56z"/>
	<path style="fill:#12630e;" d="M179.62,21.36c-1.62,6.8-3.51,13.08-10.4,13.08c-3.75,0-5.59-1.85-6.01-5.27
		c-0.92,2.82-3.01,5.27-6.38,5.27c-4.95,0-6.84-2.31-6.84-7.95V10.63h3.38c4.58,0,5.27,1.57,5.27,5.36v12.39
		c0,2.54,0.79,3.1,1.76,3.1c1.53,0,2.63-2.82,2.73-5.73V10.63h8.74v18.96c0,1.48,0.42,2.5,1.62,2.5c1.94,0,4.3-4.48,5.64-10.82
		L179.62,21.36z"/>
	<path style="fill:#12630e;" d="M175.41,26.72c-0.05-3.51,2.08-5.55,4.58-5.6c0.97-2.45,1.53-4.9,1.99-6.75
		c0.83-3.47,1.3-4.76,4.21-4.76h4.86c1.71,7.17,5.92,10.59,5.92,16.14c0,6.24-4.99,8.69-12.67,8.69
		C178.65,34.45,175.41,31.39,175.41,26.72z M180.73,21.18c2.08,0.32,3.65,2.22,3.65,4.53c0,2.54-1.29,4.9-4.62,4.9
		c-1.39,0-2.31-0.55-2.91-1.3c0.88,2.36,3.1,4.11,6.33,4.11c3.1,0,4.72-1.99,4.72-5.73c0-4.86-4.3-10.91-4.48-16
		C182.85,13.73,182.02,17.62,180.73,21.18z"/>
</g>
</svg>
