<svg id="Layer_1" data-name="Layer 1" xmlns="http://www.w3.org/2000/svg" viewBox="0 0 89.9 36.92"><title>logo-edit</title><circle cx="28.37" cy="14.4" r="8.42" fill="#95c93d"/><rect x="27.85" y="11.23" width="1.22" height="16.08" rx="0.61" fill="#231f20"/><rect x="25.4" y="12.07" width="1.22" height="6.02" rx="0.61" transform="translate(-0.71 28.84) rotate(-57.36)" fill="#231f20"/><rect x="29.88" y="12.49" width="1.22" height="7.05" rx="0.61" transform="translate(19.07 -16.47) rotate(42.91)" fill="#231f20"/><path d="M27.85,22.81h1.22a0,0,0,0,1,0,0v4a.61.61,0,0,1-.61.61h0a.61.61,0,0,1-.61-.61v-4A0,0,0,0,1,27.85,22.81Z" fill="#95c93d"/><path d="M9.25,22.27V11.17c0-3.82,1.49-5.74,4.75-6H8.7C4,5.17,2,6.54,2,9.86,2,12,2.9,13.39,4.1,13.77a2.47,2.47,0,0,1-1.4-2.39A2.57,2.57,0,0,1,5.49,8.75a2.6,2.6,0,0,1,2.83,2.68c0,2.07-1.81,2.92-3.35,2.92C3,14.35,1.47,13,1.47,9.66,1.47,5.25,3.63,1,10.8,1H22.28c0,2.62-.64,4.17-3.47,4.17h-4v7.58h3.47V9.57h.46v7.34h-.46V13.33H14.85v8.94Z" fill="#fff" stroke="#231f20" stroke-miterlimit="10" stroke-width="0.1"/><path d="M39.52,7.7c2.31,0,3.38.64,3.73,2.13a3.62,3.62,0,0,1,3.62-2.56c1.92,0,3.44,1.39,3.44,3.87,0,2.25-1.4,3.38-2.92,3.38a2.5,2.5,0,0,1-2.59-2.65,2.47,2.47,0,0,1,2.68-2.62,2.24,2.24,0,0,1,2.45,1.89c-.15-2.42-1.55-3.47-3.15-3.47s-3.32,1.08-3.38,4.11V22.27H38V7.7Z" fill="#fff" stroke="#231f20" stroke-miterlimit="10" stroke-width="0.1"/><path d="M57,16.48c.35,3.9,1.63,5.27,4,5.27,2.91,0,4.93-2.51,6.12-7l.26.11c-1.37,5.66-3.82,7.87-8.71,7.87-4,0-7.67-2.39-7.67-7.78s3.82-7.66,7.49-7.66,6,1.39,6,4.57c0,3.67-3.06,4.67-6.47,4.67C57.57,16.51,57.25,16.48,57,16.48Zm0-.3c2.39-.08,2.85-2.65,2.85-5.15,0-2-.4-3.36-1.28-3.36S56.87,9,56.87,14.09C56.87,14.87,56.9,15.54,56.93,16.18Z" fill="#fff" stroke="#231f20" stroke-miterlimit="10" stroke-width="0.1"/><path d="M64.4,17.85c0-2.22,1.31-3.5,2.88-3.53a32.68,32.68,0,0,0,1.25-4.26c.53-2.18.82-3,2.66-3h3.06C75.32,11.58,78,13.74,78,17.23c0,3.94-3.15,5.48-8,5.48C66.44,22.71,64.4,20.79,64.4,17.85Zm3.35-3.5a2.81,2.81,0,0,1,2.3,2.85,2.78,2.78,0,0,1-2.91,3.09,2.26,2.26,0,0,1-1.84-.81,4,4,0,0,0,4,2.59c1.95,0,3-1.25,3-3.61,0-3.06-2.71-6.88-2.82-10.09C69.09,9.66,68.56,12.1,67.75,14.35Z" fill="#fff" stroke="#231f20" stroke-miterlimit="10" stroke-width="0.1"/><path d="M89,16.51c-.29,3.17-.9,6.2-4.34,6.2-2.54,0-4.43-.76-4.49-4.49v-10H78.36V7.7h1.78V2.81h1.55c2.88,0,3.9,1,3.9,3.41V7.7h2.16v.53H85.59V20.35c0,.67.15,1.2.88,1.2.9,0,1.8-1.64,2.15-5.1Z" fill="#fff" stroke="#231f20" stroke-miterlimit="10" stroke-width="0.1"/><path d="M21.15,33.14a.89.89,0,0,1-.43.09.51.51,0,0,1-.37-.13.54.54,0,0,1-.13-.42,1.37,1.37,0,0,1-.58.42,1.78,1.78,0,0,1-.7.13,1.71,1.71,0,0,1-.46,0,1.17,1.17,0,0,1-.39-.18.86.86,0,0,1-.25-.31,1.17,1.17,0,0,1,0-1,1,1,0,0,1,.28-.32,1.17,1.17,0,0,1,.39-.18l.45-.11.46-.07a3.08,3.08,0,0,0,.39-.07.76.76,0,0,0,.27-.13.33.33,0,0,0,.1-.26.57.57,0,0,0-.08-.31.55.55,0,0,0-.18-.19.79.79,0,0,0-.26-.08l-.29,0a1.33,1.33,0,0,0-.63.14.61.61,0,0,0-.27.55h-.6A1.33,1.33,0,0,1,18,30.1a1.14,1.14,0,0,1,.34-.38,1.48,1.48,0,0,1,.48-.2,2.63,2.63,0,0,1,.58-.07,3.88,3.88,0,0,1,.48,0,1.2,1.2,0,0,1,.44.14.86.86,0,0,1,.32.31,1,1,0,0,1,.12.51V32.3a1.24,1.24,0,0,0,0,.31c0,.07.07.1.17.1l.18,0Zm-1-1.86a.59.59,0,0,1-.29.12l-.38.07-.41.05a1.89,1.89,0,0,0-.36.1.67.67,0,0,0-.26.2.57.57,0,0,0-.11.36.45.45,0,0,0,.22.41.63.63,0,0,0,.22.09,1.09,1.09,0,0,0,.26,0,1.52,1.52,0,0,0,.51-.08,1,1,0,0,0,.34-.2.82.82,0,0,0,.2-.27.7.7,0,0,0,.06-.27Z" fill="#fff"/><path d="M22.26,29.54v.57h0a1.26,1.26,0,0,1,1.18-.66,1.71,1.71,0,0,1,.6.1,1.08,1.08,0,0,1,.38.28.94.94,0,0,1,.21.41,2.23,2.23,0,0,1,.06.54v2.38h-.6V30.71a.67.67,0,0,0-.73-.73,1.38,1.38,0,0,0-.48.08,1,1,0,0,0-.33.24,1,1,0,0,0-.2.36,1.63,1.63,0,0,0-.06.45v2h-.6V29.54Z" fill="#fff"/><path d="M28.23,33.16v-.49h0a.88.88,0,0,1-.46.43,1.78,1.78,0,0,1-.7.13,1.67,1.67,0,0,1-.73-.15,1.5,1.5,0,0,1-.52-.41,2,2,0,0,1-.31-.6,2.52,2.52,0,0,1-.1-.73,2.48,2.48,0,0,1,.1-.73,1.71,1.71,0,0,1,.31-.6,1.59,1.59,0,0,1,.51-.41,1.67,1.67,0,0,1,.73-.15l.3,0a1.31,1.31,0,0,1,.32.1,1.34,1.34,0,0,1,.31.17,1.05,1.05,0,0,1,.24.27h0V28.16h.6v5Zm-2.14-1.29a1.44,1.44,0,0,0,.21.43.85.85,0,0,0,.35.3,1,1,0,0,0,.5.12,1,1,0,0,0,.51-.12,1.13,1.13,0,0,0,.34-.31,1.34,1.34,0,0,0,.19-.44,2.14,2.14,0,0,0,.06-.5,2.1,2.1,0,0,0-.06-.51,1.27,1.27,0,0,0-.2-.44.92.92,0,0,0-.35-.3,1.09,1.09,0,0,0-.53-.12,1,1,0,0,0-.85.43,1.51,1.51,0,0,0-.18.45,3,3,0,0,0,0,.52A2,2,0,0,0,26.09,31.87Z" fill="#fff"/><path d="M37,27.59a2.29,2.29,0,0,0,.06-.54,1.94,1.94,0,0,0-1.88-2.12c-1.35,0-2,1.38-2,3.9,0,2.76,1,4,2.14,4s2.24-1.58,2.68-3.33l.14,0c-.61,2.65-1.87,3.69-3.63,3.69s-3.71-1.2-3.71-4.3,1.91-4.3,3.77-4.3a2.38,2.38,0,0,1,2.7,2.46c0,1-.51,1.66-1.29,1.66a1.13,1.13,0,1,1,0-2.26,1,1,0,0,1,1,1A.34.34,0,0,1,37,27.59Z" fill="#95c93d"/><path d="M38.88,26.62a1.18,1.18,0,1,1,1.22-1.18A1.17,1.17,0,0,1,38.88,26.62Zm2.86,3.63c-.46,1.62-.68,3-2.11,3s-1.73-.7-1.73-1.94v-4h.82c.89,0,1.28.28,1.28,1.23v3.68c0,.37,0,.57.33.57s.77-.55,1.27-2.54Z" fill="#95c93d"/><path d="M44.39,27.51h-.83v4.78c0,.26.06.47.34.47.52,0,1.18-1.22,1.47-2.81l.15.05c-.28,1.28-.77,3.22-2.33,3.22-1,0-1.7-.3-1.73-1.78V27.51h-.68v-.23h.68V25.34h.6c1.11,0,1.5.4,1.5,1.35v.59h.83Z" fill="#95c93d"/><path d="M47.49,33h-.23c-1.06,0-2-.44-2-2.18V27.28h.6c1.11,0,1.5.5,1.5,1.45v3.11c0,.56.11.93.53.93s.56-.36.56-1.1V27.28h2.11v6.06c0,1.68-1.37,2.46-2.83,2.46-1.17,0-2.22-.28-2.22-1.29S46.74,33.12,47.49,33Zm.95-.26c-.13.07-.38.2-.45.25-.48.32-.73.7-.73,1.72,0,.62.18,1.06.6,1.06s.58-.31.58-1.07Z" fill="#95c93d"/></svg>