<?xml version="1.0" encoding="utf-8"?>
<!-- Generator: Adobe Illustrator 23.1.1, SVG Export Plug-In . SVG Version: 6.00 Build 0)  -->
<svg version="1.1" id="Layer_1" xmlns="http://www.w3.org/2000/svg" xmlns:xlink="http://www.w3.org/1999/xlink" x="0px" y="0px"
	 viewBox="0 0 92.4 40.2" style="enable-background:new 0 0 92.4 40.2;" xml:space="preserve">
<style type="text/css">
	.st0{fill:#83D115;}
	.st1{fill:#241F20;}
	.st2{fill:#FFFFFF;}
</style>
<title>logo</title>
<g>
	<circle class="st0" cx="29.2" cy="17.3" r="8.4"/>
	<path class="st1" d="M29.3,14.2L29.3,14.2c0.3,0,0.6,0.3,0.6,0.6v14.9c0,0.3-0.3,0.6-0.6,0.6l0,0c-0.3,0-0.6-0.3-0.6-0.6V14.8
		C28.7,14.4,28.9,14.2,29.3,14.2z"/>
	<path class="st1" d="M24.3,16.4L24.3,16.4c0.2-0.3,0.6-0.4,0.8-0.2l4,2.6c0.3,0.2,0.4,0.6,0.2,0.8l0,0c-0.2,0.3-0.6,0.4-0.8,0.2
		l-4-2.6C24.2,17,24.1,16.7,24.3,16.4z"/>
	<path class="st1" d="M33.7,16.4L33.7,16.4c0.2,0.2,0.3,0.6,0,0.9l-4,4.3c-0.2,0.2-0.6,0.3-0.9,0l0,0c-0.2-0.2-0.3-0.6,0-0.9l4-4.3
		C33.1,16.2,33.5,16.1,33.7,16.4z"/>
	<path class="st0" d="M28.7,25.7h1.2l0,0v4c0,0.3-0.3,0.6-0.6,0.6l0,0l0,0c-0.3,0-0.6-0.3-0.6-0.6l0,0V25.7L28.7,25.7z"/>
	<path class="st2" d="M10.1,25.2V14.1c0-3.8,1.5-5.7,4.8-6H9.5c-4.7,0-6.7,1.4-6.7,4.7c0,2.1,0.9,3.5,2.1,3.9
		c-0.9-0.4-1.5-1.4-1.4-2.4c0-1.4,1.1-2.6,2.5-2.6c0.1,0,0.2,0,0.3,0C7.7,11.6,9,12.6,9.1,14c0,0.1,0,0.2,0,0.3
		c0,2.1-1.8,2.9-3.3,2.9c-2,0-3.5-1.3-3.5-4.7c0-4.4,2.2-8.6,9.3-8.6h11.5c0,2.6-0.6,4.2-3.5,4.2h-4v7.6h3.5v-3.2h0.5v7.3h-0.5v-3.6
		h-3.4v8.9L10.1,25.2z"/>
	<path class="st2" d="M40.3,10.6c2.3,0,3.4,0.6,3.7,2.1c0.5-1.6,2-2.6,3.6-2.6c1.9,0,3.4,1.4,3.4,3.9c0,2.2-1.4,3.4-2.9,3.4
		c-1.4,0.1-2.5-1-2.6-2.4c0-0.1,0-0.2,0-0.2c-0.1-1.4,0.9-2.5,2.3-2.6c0.1,0,0.2,0,0.4,0c1.2-0.1,2.3,0.7,2.4,1.9
		c-0.2-2.4-1.6-3.4-3.2-3.4s-3.3,1.1-3.4,4.1v10.5h-5.4V10.6H40.3z"/>
	<path class="st2" d="M57.8,19.4c0.3,3.9,1.6,5.3,4,5.3c2.9,0,4.9-2.5,6.1-7l0.3,0.1c-1.4,5.7-3.8,7.9-8.7,7.9c-4,0-7.7-2.4-7.7-7.8
		s3.8-7.7,7.5-7.7s6,1.4,6,4.6c0,3.7-3.1,4.7-6.5,4.7C58.4,19.4,58.1,19.4,57.8,19.4z M57.8,19.1c2.4-0.1,2.8-2.7,2.8-5.2
		c0-2-0.4-3.3-1.3-3.3s-1.6,1.3-1.6,6.4C57.7,17.8,57.7,18.5,57.8,19.1L57.8,19.1z"/>
	<path class="st2" d="M65.2,20.8c0-2.2,1.3-3.5,2.9-3.5c0.5-1.4,0.9-2.8,1.2-4.3c0.5-2.2,0.8-3,2.7-3H75c1.1,4.5,3.7,6.7,3.7,10.2
		c0,3.9-3.2,5.5-8,5.5C67.2,25.6,65.2,23.7,65.2,20.8z M68.5,17.3c1.4,0.3,2.3,1.5,2.3,2.8c0.2,1.5-0.9,2.9-2.4,3.1
		c-0.2,0-0.3,0-0.5,0c-0.7,0-1.4-0.3-1.8-0.8c0.6,1.7,2.2,2.7,4,2.6c2,0,3-1.2,3-3.6c0-3.1-2.7-6.9-2.8-10.1
		C69.9,12.6,69.4,15,68.5,17.3L68.5,17.3z"/>
	<path class="st2" d="M89.8,19.4c-0.3,3.2-0.9,6.2-4.3,6.2c-2.5,0-4.4-0.8-4.5-4.5v-10h-1.8v-0.5H81V5.7h1.5c2.9,0,3.9,1,3.9,3.4
		v1.5h2.2v0.5h-2.2v12.1c0,0.7,0.1,1.2,0.9,1.2c0.9,0,1.8-1.6,2.2-5.1L89.8,19.4z"/>
	<path class="st2" d="M22,36.1c-0.1,0.1-0.3,0.1-0.4,0.1c-0.1,0-0.3,0-0.4-0.1c-0.1-0.1-0.2-0.3-0.1-0.4c-0.1,0.2-0.3,0.3-0.6,0.4
		c-0.2,0.1-0.5,0.1-0.7,0.1c-0.2,0-0.3,0-0.5,0c-0.1,0-0.3-0.1-0.4-0.2c-0.1-0.1-0.2-0.2-0.2-0.3c-0.1-0.1-0.1-0.3-0.1-0.5
		c0-0.2,0-0.4,0.1-0.5c0.1-0.1,0.2-0.2,0.3-0.3c0.1-0.1,0.3-0.1,0.4-0.2c0.1,0,0.3-0.1,0.5-0.1c0.2,0,0.3-0.1,0.5-0.1
		c0.1,0,0.3,0,0.4-0.1c0.1,0,0.2-0.1,0.3-0.1c0.1-0.1,0.1-0.2,0.1-0.3c0-0.1,0-0.2-0.1-0.3c-0.1-0.1-0.1-0.1-0.2-0.2
		c-0.1,0-0.2-0.1-0.3-0.1c-0.3,0-0.6,0-0.9,0.1c-0.2,0.1-0.3,0.3-0.3,0.5h-0.6c0-0.2,0.1-0.4,0.1-0.6c0.1-0.2,0.2-0.3,0.4-0.5
		c0.1-0.1,0.3-0.2,0.5-0.2c0.2,0,0.4-0.1,0.6-0.1c0.2,0,0.3,0,0.5,0c0.2,0.1,0.3,0.1,0.5,0.3c0.1,0.1,0.2,0.2,0.3,0.3
		c0.1,0.2,0.1,0.3,0.1,0.5v1.9c0,0.1,0,0.2,0,0.3c0,0.1,0.1,0.1,0.2,0.1c0.1,0,0.1,0,0.2,0L22,36.1z M21,34.2
		c-0.1,0.1-0.2,0.1-0.3,0.1l-0.4,0.1h-0.4c-0.1,0-0.2,0.1-0.4,0.1c-0.1,0-0.2,0.1-0.3,0.2c-0.1,0.1-0.1,0.2-0.1,0.4
		c0,0.1,0,0.2,0.1,0.2c0,0.1,0.1,0.1,0.2,0.2c0.1,0,0.1,0.1,0.2,0.1c0.1,0,0.2,0,0.3,0c0.2,0,0.4,0.1,0.5,0.1c0.1,0,0.2-0.1,0.3-0.2
		c0.1-0.1,0.1-0.2,0.2-0.3c0-0.1,0.1-0.2,0.1-0.3L21,34.2z"/>
	<path class="st2" d="M23.1,32.5V33l0,0c0.2-0.4,0.7-0.7,1.2-0.7c0.2,0,0.4,0,0.6,0.1c0.1,0.1,0.3,0.2,0.4,0.3
		c0.1,0.1,0.2,0.3,0.2,0.4c0,0.2,0.1,0.4,0.1,0.5v2.4h-0.6v-2.5c0-0.2-0.1-0.4-0.2-0.5c-0.1-0.1-0.3-0.2-0.5-0.2
		c-0.2,0-0.3,0-0.5,0.1c-0.1,0.1-0.2,0.1-0.3,0.2c-0.1,0.1-0.2,0.2-0.2,0.4c0,0.1-0.1,0.3-0.1,0.4v2h-0.6v-3.6H23.1z"/>
	<path class="st2" d="M29,36.1v-0.5l0,0c-0.1,0.2-0.3,0.3-0.5,0.4c-0.2,0.1-0.5,0.1-0.7,0.1c-0.2,0-0.5-0.1-0.7-0.2
		c-0.2-0.1-0.4-0.2-0.5-0.4c-0.1-0.2-0.2-0.4-0.3-0.6c-0.1-0.2-0.1-0.5-0.1-0.7c0-0.2,0-0.5,0.1-0.7c0.1-0.2,0.2-0.4,0.3-0.6
		c0.1-0.2,0.3-0.3,0.5-0.4c0.2-0.1,0.5-0.2,0.7-0.2h0.3c0.1,0,0.2,0.1,0.3,0.1c0.1,0,0.2,0.1,0.3,0.2c0.1,0.1,0.2,0.2,0.2,0.3l0,0
		v-1.8h0.6v5H29z M26.9,34.8c0,0.2,0.1,0.3,0.2,0.4c0.1,0.1,0.2,0.2,0.4,0.3c0.2,0.1,0.3,0.1,0.5,0.1c0.2,0,0.4,0,0.5-0.1
		c0.1-0.1,0.2-0.2,0.3-0.3c0.1-0.1,0.2-0.3,0.2-0.4c0-0.2,0.1-0.3,0.1-0.5c0-0.2,0-0.3-0.1-0.5c0-0.2-0.1-0.3-0.2-0.4
		c-0.1-0.1-0.2-0.2-0.3-0.3c-0.2-0.1-0.3-0.1-0.5-0.1c-0.3,0-0.7,0.2-0.8,0.4c-0.1,0.1-0.1,0.3-0.2,0.4c0,0.2,0,0.3,0,0.5
		C26.9,34.5,26.9,34.6,26.9,34.8z"/>
	<path class="st0" d="M37.8,30.5c0-0.2,0.1-0.4,0.1-0.6c0.1-1.1-0.7-2-1.8-2.1c0,0-0.1,0-0.1,0c-1.3,0-2,1.4-2,3.9c0,2.8,1,4,2.1,4
		s2.2-1.6,2.7-3.3h0.1c-0.6,2.7-1.9,3.7-3.6,3.7s-3.7-1.2-3.7-4.3s1.9-4.3,3.8-4.3c1.3-0.2,2.5,0.7,2.7,2c0,0.1,0,0.3,0,0.4
		c0,1-0.5,1.7-1.3,1.7c-0.6,0-1.1-0.5-1.1-1.1c0-0.6,0.5-1.1,1.1-1.1c0.6,0,1,0.4,1,0.9c0,0,0,0,0,0.1
		C37.8,30.4,37.8,30.5,37.8,30.5z"/>
	<path class="st0" d="M39.7,29.6c-0.7,0-1.2-0.6-1.1-1.2s0.6-1.2,1.2-1.1c0.6,0,1.1,0.5,1.1,1.2C40.9,29,40.4,29.5,39.7,29.6
		C39.7,29.6,39.7,29.6,39.7,29.6z M42.5,33.2c-0.5,1.6-0.7,3-2.1,3s-1.7-0.7-1.7-1.9v-4h0.8c0.9,0,1.3,0.3,1.3,1.2v3.7
		c0,0.4,0,0.6,0.3,0.6s0.8-0.6,1.3-2.5L42.5,33.2z"/>
	<path class="st0" d="M45.2,30.4h-0.8v4.8c0,0.3,0.1,0.5,0.3,0.5c0.5,0,1.2-1.2,1.5-2.8h0.2c-0.3,1.3-0.8,3.2-2.3,3.2
		c-1,0-1.7-0.3-1.7-1.8v-3.9h-0.7v-0.2h0.7v-1.9h0.6c1.1,0,1.5,0.4,1.5,1.3v0.6h0.8V30.4z"/>
	<path class="st0" d="M48.3,35.9h-0.2c-1.1,0-2-0.4-2-2.2v-3.5h0.6c1.1,0,1.5,0.5,1.5,1.5v3.1c0,0.6,0.1,0.9,0.5,0.9
		s0.6-0.4,0.6-1.1v-4.4h2.1v6.1c0,1.7-1.4,2.5-2.8,2.5c-1.2,0-2.2-0.3-2.2-1.3S47.5,36.1,48.3,35.9z M49.3,35.6
		c-0.1,0.1-0.4,0.2-0.4,0.2c-0.5,0.3-0.7,0.7-0.7,1.7c0,0.6,0.2,1.1,0.6,1.1s0.6-0.3,0.6-1.1L49.3,35.6z"/>
</g>
</svg>
