<?xml version="1.0" encoding="utf-8"?>
<!-- Generator: Adobe Illustrator 23.1.1, SVG Export Plug-In . SVG Version: 6.00 Build 0)  -->
<svg version="1.1" id="Layer_1" xmlns="http://www.w3.org/2000/svg" xmlns:xlink="http://www.w3.org/1999/xlink" x="0px" y="0px"
	 viewBox="0 0 404.1 161.4" style="enable-background:new 0 0 404.1 161.4;" xml:space="preserve">
<style type="text/css">
	.st0{fill:#BFBFBF;}
	.st1{fill:#5C7641;}
	.st2{fill:#FFFFFF;}
	.st3{stroke:#231F20;stroke-width:0.1;stroke-miterlimit:10;}
	.st4{fill:#95C93D;}
	.st5{fill:#231F20;}
	.st6{fill:#FFFFFF;stroke:#231F20;stroke-width:0.5;stroke-miterlimit:10;}
	.st7{fill:#FFFFFF;stroke:#231F20;stroke-width:0.1;stroke-miterlimit:10;}
	.st8{opacity:0.5;}
	.st9{fill:#85F807;}
</style>
<g id="Logo_3_">
	<g id="Logo_5_">
		<circle cx="125" cy="62.9" r="38.7"/>
		<path d="M125.4,48.3L125.4,48.3c1.6,0,2.8,1.3,2.8,2.8v68.4c0,1.6-1.3,2.8-2.8,2.8h0c-1.6,0-2.8-1.3-2.8-2.8V51.1
			C122.6,49.6,123.9,48.3,125.4,48.3z"/>
		<path d="M102.5,58.5L102.5,58.5c0.8-1.3,2.6-1.7,3.9-0.8L125,69.6c1.3,0.8,1.7,2.6,0.8,3.9l0,0c-0.8,1.3-2.6,1.7-3.9,0.8
			l-18.6-11.9C102.1,61.6,101.7,59.8,102.5,58.5z"/>
		<path d="M145.9,58.5L145.9,58.5c1.1,1.1,1.2,2.8,0.1,4l-18.3,19.6c-1.1,1.1-2.8,1.2-4,0.1l0,0c-1.1-1.1-1.2-2.8-0.1-4l18.3-19.6
			C143,57.5,144.7,57.4,145.9,58.5z"/>
		<path d="M122.6,101.6h5.6l0,0V120c0,1.6-1.3,2.8-2.8,2.8c0,0,0,0,0,0l0,0c-1.6,0-2.8-1.3-2.8-2.8c0,0,0,0,0,0
			S122.6,101.6,122.6,101.6z"/>
		<path class="st3" d="M37.1,99.1V48c0-17.6,6.9-26.4,21.9-27.6H34.5C12.9,20.4,3.7,26.7,3.7,42c0,9.8,4.1,16.2,9.7,18
			c-4.2-2-6.7-6.4-6.4-11c-0.2-6.5,5-12,11.5-12.1c0.4,0,0.9,0,1.3,0c6.6-0.6,12.4,4.3,13,10.9c0,0.5,0.1,1,0,1.5
			c0,9.5-8.3,13.4-15.4,13.4c-9.1,0-16.1-6.2-16.1-21.6c0-20.3,9.9-39.8,42.9-39.8H97c0,12.1-2.9,19.2-16,19.2H62.6v34.9h16V40.7
			h2.1v33.8h-2.1V58H62.8v41.1H37.1z"/>
		<path class="st3" d="M176.3,32.1c10.6,0,15.6,2.9,17.2,9.8c2.2-7.3,9.1-12.1,16.7-11.8c8.8,0,15.8,6.4,15.8,17.8
			c0,10.4-6.4,15.6-13.4,15.6c-6.3,0.2-11.7-4.7-11.9-11.1c0-0.4,0-0.8,0-1.1c-0.4-6.3,4.3-11.7,10.6-12.1c0.6,0,1.2,0,1.7,0
			c5.5-0.6,10.4,3.3,11.3,8.7c-0.7-11.1-7.1-16-14.5-16c-7.4,0-15.3,5-15.6,18.9v48.3h-24.8v-67H176.3z"/>
		<path class="st3" d="M256.8,72.5c1.6,17.9,7.5,24.3,18.4,24.3c13.4,0,22.7-11.6,28.2-32.2l1.2,0.5c-6.3,26-17.6,36.2-40.1,36.2
			c-18.4,0-35.3-11-35.3-35.8s17.6-35.2,34.5-35.2s27.6,6.4,27.6,21c0,16.9-14.1,21.5-29.8,21.5C259.4,72.6,257.9,72.5,256.8,72.5z
			 M256.8,71.1c11-0.4,13.1-12.2,13.1-23.7c0-9.2-1.8-15.5-5.9-15.5s-7.8,6.1-7.8,29.5c0,3.6,0.1,6.7,0.3,9.6H256.8z"/>
		<path class="st3" d="M290.8,78.8c0-10.2,6-16.1,13.3-16.2c2.4-6.4,4.3-12.9,5.8-19.6c2.4-10,3.8-13.8,12.2-13.8h14.1
			c4.9,20.8,17.3,30.7,17.3,46.8c0,18.1-14.5,25.2-36.8,25.2C300.2,101.2,290.8,92.3,290.8,78.8z M306.2,62.7
			c6.3,1.2,10.8,6.7,10.6,13.1c0.8,7-4.2,13.4-11.3,14.2c-0.7,0.1-1.4,0.1-2.1,0.1c-3.2,0.2-6.4-1.2-8.5-3.7
			c2.8,7.6,10.3,12.4,18.4,11.9c9,0,13.8-5.8,13.8-16.6c0-14.1-12.5-31.7-13-46.4C312.4,41.1,310,52.3,306.2,62.7z"/>
		<path class="st3" d="M404,72.6c-1.3,14.6-4.1,28.5-20,28.5c-11.7,0-20.4-3.5-20.7-20.7v-46h-8.3v-5.4h8.2V9.6h7.1
			c13.3,0,17.9,4.6,17.9,15.7v3.8h9.9v5.4h-9.9v55.8c0,3.1,0.7,5.5,4,5.5c4.1,0,8.3-7.5,9.9-23.5L404,72.6z"/>
		<path d="M91.8,149.1c-0.6,0.3-1.3,0.4-2,0.4c-0.6,0-1.2-0.2-1.7-0.6c-0.5-0.5-0.7-1.2-0.6-1.9c-0.7,0.9-1.6,1.5-2.7,1.9
			c-1,0.4-2.1,0.6-3.2,0.6c-0.7,0.1-1.4,0.1-2.1,0c-0.6-0.2-1.3-0.4-1.8-0.8c-0.5-0.4-0.9-0.9-1.2-1.4c-0.7-1.5-0.7-3.1,0-4.6
			c0.3-0.6,0.8-1.1,1.3-1.5c0.5-0.4,1.2-0.7,1.8-0.8l2.1-0.5l2.1-0.3c0.6-0.1,1.2-0.2,1.8-0.3c0.4-0.1,0.9-0.3,1.2-0.6
			c0.3-0.3,0.5-0.7,0.5-1.2c0-0.5-0.1-1-0.4-1.4c-0.2-0.4-0.5-0.7-0.8-0.9c-0.4-0.2-0.8-0.3-1.2-0.4h-1.3c-1,0-2,0.2-2.9,0.6
			c-0.8,0.6-1.3,1.5-1.2,2.5h-2.8c0-1,0.2-1.9,0.6-2.8c0.4-0.7,0.9-1.3,1.6-1.7c0.7-0.4,1.4-0.7,2.2-0.9c0.9-0.2,1.8-0.3,2.7-0.3
			c0.7,0,1.5,0,2.2,0c0.7,0.1,1.4,0.3,2,0.6c0.6,0.3,1.1,0.8,1.5,1.4c0.4,0.7,0.6,1.5,0.6,2.3v8.7c-0.1,0.5-0.1,1,0,1.4
			c0,0.3,0.3,0.5,0.8,0.5h0.8L91.8,149.1z M87.2,140.6c-0.4,0.3-0.8,0.5-1.3,0.6l-1.7,0.3l-1.9,0.2c-0.6,0.1-1.1,0.3-1.7,0.5
			c-0.5,0.2-0.9,0.5-1.2,0.9c-0.4,0.5-0.5,1.1-0.5,1.7c0,0.8,0.4,1.5,1,1.9c0.3,0.2,0.7,0.3,1,0.4c0.4,0,0.8,0,1.2,0
			c0.8,0,1.6-0.1,2.3-0.4c0.6-0.2,1.1-0.5,1.6-0.9c0.4-0.3,0.7-0.8,0.9-1.2c0.2-0.4,0.3-0.8,0.3-1.2L87.2,140.6z"/>
		<path d="M96.9,132.6v2.6l0,0c1.1-2,3.2-3.2,5.4-3c0.9,0,1.9,0.1,2.8,0.5c0.7,0.3,1.3,0.7,1.7,1.3c0.5,0.5,0.8,1.2,1,1.9
			c0.2,0.8,0.3,1.6,0.3,2.5v11h-2.8V138c0.2-1.7-1.1-3.2-2.8-3.4c-0.2,0-0.4,0-0.6,0c-0.8,0-1.5,0.1-2.2,0.4
			c-0.6,0.3-1.1,0.6-1.5,1.1c-0.4,0.5-0.7,1-0.9,1.7c-0.2,0.7-0.3,1.4-0.3,2.1v9.2h-2.8v-16.4H96.9z"/>
		<path d="M124.4,149.2V147l0,0c-0.4,0.9-1.2,1.6-2.1,2c-1,0.4-2.1,0.6-3.2,0.6c-1.2,0-2.3-0.2-3.4-0.7c-0.9-0.4-1.7-1.1-2.4-1.9
			c-0.6-0.8-1.1-1.8-1.4-2.8c-0.3-1.1-0.5-2.2-0.5-3.4c0-1.1,0.1-2.3,0.5-3.4c0.3-1,0.8-1.9,1.4-2.8c0.6-0.8,1.4-1.4,2.3-1.9
			c1.1-0.5,2.2-0.7,3.4-0.7h1.4c0.5,0.1,1,0.2,1.5,0.5c0.5,0.2,1,0.5,1.4,0.8c0.4,0.3,0.8,0.8,1.1,1.2l0,0v-8.4h2.8v23H124.4z
			 M114.5,143.3c0.2,0.7,0.5,1.4,1,2c0.4,0.6,1,1.1,1.6,1.4c0.7,0.4,1.5,0.6,2.3,0.6c0.8,0,1.6-0.2,2.3-0.6c0.6-0.4,1.1-0.8,1.6-1.4
			c0.4-0.6,0.7-1.3,0.9-2c0.2-0.8,0.3-1.5,0.3-2.3c0-0.8-0.1-1.6-0.3-2.3c-0.2-0.7-0.5-1.4-0.9-2c-0.4-0.6-1-1.1-1.6-1.4
			c-0.8-0.4-1.6-0.6-2.4-0.6c-1.6,0-3,0.7-3.9,2c-0.4,0.6-0.7,1.3-0.8,2.1c-0.1,0.8-0.1,1.6,0,2.4
			C114.4,141.8,114.4,142.6,114.5,143.3z"/>
		<path d="M164.7,123.6c0.2-0.8,0.3-1.6,0.3-2.5c0.5-4.9-3.1-9.3-8.1-9.7c-0.2,0-0.4,0-0.6,0c-6.2,0-9.2,6.4-9.2,17.9
			c0,12.7,4.6,18.4,9.8,18.4s10.3-7.3,12.3-15.3h0.6c-2.8,12.2-8.6,17-16.7,17s-17.1-5.5-17.1-19.8c0-14.3,8.8-19.8,17.3-19.8
			c6-0.8,11.5,3.4,12.3,9.4c0.1,0.6,0.1,1.3,0.1,2c0,4.6-2.3,7.6-5.9,7.6c-2.9,0-5.2-2.3-5.2-5.2c0-2.9,2.3-5.2,5.2-5.2
			c2.5,0,4.6,2.1,4.6,4.6C164.7,123.2,164.8,123.4,164.7,123.6z"/>
		<path d="M173.4,119.1c-3-0.1-5.3-2.6-5.2-5.6c0.1-3,2.6-5.3,5.6-5.2c2.9,0.1,5.2,2.5,5.2,5.4c0,3-2.4,5.4-5.3,5.4
			C173.6,119.1,173.5,119.1,173.4,119.1z M186.6,135.8c-2.1,7.5-3.1,13.8-9.7,13.8s-8-3.2-8-8.9v-18.4h3.8c4.1,0,5.9,1.3,5.9,5.7
			v16.9c0,1.7,0,2.6,1.5,2.6s3.5-2.5,5.8-11.7L186.6,135.8z"/>
		<path d="M198.8,123.2h-3.8v22c0,1.2,0.3,2.2,1.6,2.2c2.4,0,5.4-5.6,6.8-12.9l0.7,0.2c-1.3,5.9-3.5,14.8-10.7,14.8
			c-4.6,0-7.8-1.4-8-8.2v-18.1h-3.1v-3.1h3.1v-6.9h2.8c5.1,0,6.9,1.8,6.9,6.2v0.7h3.8L198.8,123.2z"/>
		<path d="M213,148.5H212c-4.9,0-9.2-2-9.2-10v-16.3h2.8c5.1,0,6.9,2.3,6.9,6.7v14.3c0,2.6,0.5,4.3,2.4,4.3c1.9,0,2.6-1.7,2.6-5.1
			v-20.2h9.7v27.9c0,7.7-6.3,11.3-13,11.3c-5.4,0-10.2-1.3-10.2-5.9C203.9,150.8,209.6,149.1,213,148.5z M217.4,147.3
			c-0.6,0.3-1.7,0.9-2.1,1.2c-2.2,1.5-3.4,3.2-3.4,7.9c0,2.9,0.8,4.9,2.8,4.9c1.9,0,2.7-1.4,2.7-4.9V147.3z"/>
	</g>
	<g id="Logo_4_">
		<circle class="st4" cx="124" cy="61.9" r="38.7"/>
		<path class="st5" d="M124.4,47.3L124.4,47.3c1.6,0,2.8,1.3,2.8,2.8v68.4c0,1.6-1.3,2.8-2.8,2.8h0c-1.6,0-2.8-1.3-2.8-2.8V50.1
			C121.6,48.6,122.9,47.3,124.4,47.3z"/>
		<path class="st5" d="M101.5,57.5L101.5,57.5c0.8-1.3,2.6-1.7,3.9-0.8L124,68.6c1.3,0.8,1.7,2.6,0.8,3.9l0,0
			c-0.8,1.3-2.6,1.7-3.9,0.8l-18.6-11.9C101.1,60.6,100.7,58.8,101.5,57.5z"/>
		<path class="st5" d="M144.9,57.5L144.9,57.5c1.1,1.1,1.2,2.8,0.1,4l-18.3,19.6c-1.1,1.1-2.8,1.2-4,0.1l0,0c-1.1-1.1-1.2-2.8-0.1-4
			l18.3-19.6C142,56.5,143.7,56.4,144.9,57.5z"/>
		<path class="st4" d="M121.6,100.6h5.6l0,0V119c0,1.6-1.3,2.8-2.8,2.8c0,0,0,0,0,0l0,0c-1.6,0-2.8-1.3-2.8-2.8c0,0,0,0,0,0
			S121.6,100.6,121.6,100.6z"/>
		<path class="st6" d="M36.1,98.1V47c0-17.6,6.9-26.4,21.9-27.6H33.5C11.9,19.4,2.7,25.7,2.7,41c0,9.8,4.1,16.2,9.7,18
			c-4.2-2-6.7-6.4-6.4-11c-0.2-6.5,5-12,11.5-12.1c0.4,0,0.9,0,1.3,0c6.6-0.6,12.4,4.3,13,10.9c0,0.5,0.1,1,0,1.5
			c0,9.5-8.3,13.4-15.4,13.4c-9.1,0-16.1-6.2-16.1-21.6c0-20.3,9.9-39.8,42.9-39.8H96c0,12.1-2.9,19.2-16,19.2H61.6v34.9h16V39.7
			h2.1v33.8h-2.1V57H61.8v41.1H36.1z"/>
		<path class="st6" d="M175.3,31.1c10.6,0,15.6,2.9,17.2,9.8c2.2-7.3,9.1-12.1,16.7-11.8c8.8,0,15.8,6.4,15.8,17.8
			c0,10.4-6.4,15.6-13.4,15.6c-6.3,0.2-11.7-4.7-11.9-11.1c0-0.4,0-0.8,0-1.1c-0.4-6.3,4.3-11.7,10.6-12.1c0.6,0,1.2,0,1.7,0
			c5.5-0.6,10.4,3.3,11.3,8.7c-0.7-11.1-7.1-16-14.5-16c-7.4,0-15.3,5-15.6,18.9v48.3h-24.8v-67H175.3z"/>
		<path class="st6" d="M255.8,71.5c1.6,17.9,7.5,24.3,18.4,24.3c13.4,0,22.7-11.6,28.2-32.2l1.2,0.5c-6.3,26-17.6,36.2-40.1,36.2
			c-18.4,0-35.3-11-35.3-35.8s17.6-35.2,34.5-35.2s27.6,6.4,27.6,21c0,16.9-14.1,21.5-29.8,21.5C258.4,71.6,256.9,71.5,255.8,71.5z
			 M255.8,70.1c11-0.4,13.1-12.2,13.1-23.7c0-9.2-1.8-15.5-5.9-15.5s-7.8,6.1-7.8,29.5c0,3.6,0.1,6.7,0.3,9.6H255.8z"/>
		<path class="st6" d="M289.8,77.8c0-10.2,6-16.1,13.3-16.2c2.4-6.4,4.3-12.9,5.8-19.6c2.4-10,3.8-13.8,12.2-13.8h14.1
			c4.9,20.8,17.3,30.7,17.3,46.8c0,18.1-14.5,25.2-36.8,25.2C299.2,100.2,289.8,91.3,289.8,77.8z M305.2,61.7
			c6.3,1.2,10.8,6.7,10.6,13.1c0.8,7-4.2,13.4-11.3,14.2c-0.7,0.1-1.4,0.1-2.1,0.1c-3.2,0.2-6.4-1.2-8.5-3.7
			c2.8,7.6,10.3,12.4,18.4,11.9c9,0,13.8-5.8,13.8-16.6c0-14.1-12.5-31.7-13-46.4C311.4,40.1,309,51.3,305.2,61.7z"/>
		<path class="st6" d="M403,71.6c-1.3,14.6-4.1,28.5-20,28.5c-11.7,0-20.4-3.5-20.7-20.7v-46h-8.3v-5.4h8.2V8.6h7.1
			c13.3,0,17.9,4.6,17.9,15.7v3.8h9.9v5.4h-9.9v55.8c0,3.1,0.7,5.5,4,5.5c4.1,0,8.3-7.5,9.9-23.5L403,71.6z"/>
		<path class="st7" d="M90.8,148.1c-0.6,0.3-1.3,0.4-2,0.4c-0.6,0-1.2-0.2-1.7-0.6c-0.5-0.5-0.7-1.2-0.6-1.9
			c-0.7,0.9-1.6,1.5-2.7,1.9c-1,0.4-2.1,0.6-3.2,0.6c-0.7,0.1-1.4,0.1-2.1,0c-0.6-0.2-1.3-0.4-1.8-0.8c-0.5-0.4-0.9-0.9-1.2-1.4
			c-0.7-1.5-0.7-3.1,0-4.6c0.3-0.6,0.8-1.1,1.3-1.5c0.5-0.4,1.2-0.7,1.8-0.8l2.1-0.5l2.1-0.3c0.6-0.1,1.2-0.2,1.8-0.3
			c0.4-0.1,0.9-0.3,1.2-0.6c0.3-0.3,0.5-0.7,0.5-1.2c0-0.5-0.1-1-0.4-1.4c-0.2-0.4-0.5-0.7-0.8-0.9c-0.4-0.2-0.8-0.3-1.2-0.4h-1.3
			c-1,0-2,0.2-2.9,0.6c-0.8,0.6-1.3,1.5-1.2,2.5h-2.8c0-1,0.2-1.9,0.6-2.8c0.4-0.7,0.9-1.3,1.6-1.7c0.7-0.4,1.4-0.7,2.2-0.9
			c0.9-0.2,1.8-0.3,2.7-0.3c0.7,0,1.5,0,2.2,0c0.7,0.1,1.4,0.3,2,0.6c0.6,0.3,1.1,0.8,1.5,1.4c0.4,0.7,0.6,1.5,0.6,2.3v8.7
			c-0.1,0.5-0.1,1,0,1.4c0,0.3,0.3,0.5,0.8,0.5h0.8L90.8,148.1z M86.2,139.6c-0.4,0.3-0.8,0.5-1.3,0.6l-1.7,0.3l-1.9,0.2
			c-0.6,0.1-1.1,0.3-1.7,0.5c-0.5,0.2-0.9,0.5-1.2,0.9c-0.4,0.5-0.5,1.1-0.5,1.7c0,0.8,0.4,1.5,1,1.9c0.3,0.2,0.7,0.3,1,0.4
			c0.4,0,0.8,0,1.2,0c0.8,0,1.6-0.1,2.3-0.4c0.6-0.2,1.1-0.5,1.6-0.9c0.4-0.3,0.7-0.8,0.9-1.2c0.2-0.4,0.3-0.8,0.3-1.2L86.2,139.6z"
			/>
		<path class="st7" d="M95.9,131.6v2.6l0,0c1.1-2,3.2-3.2,5.4-3c0.9,0,1.9,0.1,2.8,0.5c0.7,0.3,1.3,0.7,1.7,1.3
			c0.5,0.5,0.8,1.2,1,1.9c0.2,0.8,0.3,1.6,0.3,2.5v11h-2.8V137c0.2-1.7-1.1-3.2-2.8-3.4c-0.2,0-0.4,0-0.6,0c-0.8,0-1.5,0.1-2.2,0.4
			c-0.6,0.3-1.1,0.6-1.5,1.1c-0.4,0.5-0.7,1-0.9,1.7c-0.2,0.7-0.3,1.4-0.3,2.1v9.2h-2.8v-16.4H95.9z"/>
		<path class="st7" d="M123.4,148.2V146l0,0c-0.4,0.9-1.2,1.6-2.1,2c-1,0.4-2.1,0.6-3.2,0.6c-1.2,0-2.3-0.2-3.4-0.7
			c-0.9-0.4-1.7-1.1-2.4-1.9c-0.6-0.8-1.1-1.8-1.4-2.8c-0.3-1.1-0.5-2.2-0.5-3.4c0-1.1,0.1-2.3,0.5-3.4c0.3-1,0.8-1.9,1.4-2.8
			c0.6-0.8,1.4-1.4,2.3-1.9c1.1-0.5,2.2-0.7,3.4-0.7h1.4c0.5,0.1,1,0.2,1.5,0.5c0.5,0.2,1,0.5,1.4,0.8c0.4,0.3,0.8,0.8,1.1,1.2l0,0
			v-8.4h2.8v23H123.4z M113.5,142.3c0.2,0.7,0.5,1.4,1,2c0.4,0.6,1,1.1,1.6,1.4c0.7,0.4,1.5,0.6,2.3,0.6c0.8,0,1.6-0.2,2.3-0.6
			c0.6-0.4,1.1-0.8,1.6-1.4c0.4-0.6,0.7-1.3,0.9-2c0.2-0.8,0.3-1.5,0.3-2.3c0-0.8-0.1-1.6-0.3-2.3c-0.2-0.7-0.5-1.4-0.9-2
			c-0.4-0.6-1-1.1-1.6-1.4c-0.8-0.4-1.6-0.6-2.4-0.6c-1.6,0-3,0.7-3.9,2c-0.4,0.6-0.7,1.3-0.8,2.1c-0.1,0.8-0.1,1.6,0,2.4
			C113.4,140.8,113.4,141.6,113.5,142.3z"/>
		<path class="st4" d="M163.7,122.6c0.2-0.8,0.3-1.6,0.3-2.5c0.5-4.9-3.1-9.3-8.1-9.7c-0.2,0-0.4,0-0.6,0c-6.2,0-9.2,6.4-9.2,17.9
			c0,12.7,4.6,18.4,9.8,18.4s10.3-7.3,12.3-15.3h0.6c-2.8,12.2-8.6,17-16.7,17s-17.1-5.5-17.1-19.8c0-14.3,8.8-19.8,17.3-19.8
			c6-0.8,11.5,3.4,12.3,9.4c0.1,0.6,0.1,1.3,0.1,2c0,4.6-2.3,7.6-5.9,7.6c-2.9,0-5.2-2.3-5.2-5.2c0-2.9,2.3-5.2,5.2-5.2
			c2.5,0,4.6,2.1,4.6,4.6C163.7,122.2,163.8,122.4,163.7,122.6z"/>
		<path class="st4" d="M172.4,118.1c-3-0.1-5.3-2.6-5.2-5.6c0.1-3,2.6-5.3,5.6-5.2c2.9,0.1,5.2,2.5,5.2,5.4c0,3-2.4,5.4-5.3,5.4
			C172.6,118.1,172.5,118.1,172.4,118.1z M185.6,134.8c-2.1,7.5-3.1,13.8-9.7,13.8s-8-3.2-8-8.9v-18.4h3.8c4.1,0,5.9,1.3,5.9,5.7
			v16.9c0,1.7,0,2.6,1.5,2.6s3.5-2.5,5.8-11.7L185.6,134.8z"/>
		<path class="st4" d="M197.8,122.2h-3.8v22c0,1.2,0.3,2.2,1.6,2.2c2.4,0,5.4-5.6,6.8-12.9l0.7,0.2c-1.3,5.9-3.5,14.8-10.7,14.8
			c-4.6,0-7.8-1.4-8-8.2v-18.1h-3.1v-3.1h3.1v-6.9h2.8c5.1,0,6.9,1.8,6.9,6.2v0.7h3.8L197.8,122.2z"/>
		<path class="st4" d="M212,147.5H211c-4.9,0-9.2-2-9.2-10v-16.3h2.8c5.1,0,6.9,2.3,6.9,6.7v14.3c0,2.6,0.5,4.3,2.4,4.3
			c1.9,0,2.6-1.7,2.6-5.1v-20.2h9.7v27.9c0,7.7-6.3,11.3-13,11.3c-5.4,0-10.2-1.3-10.2-5.9C202.9,149.8,208.6,148.1,212,147.5z
			 M216.4,146.3c-0.6,0.3-1.7,0.9-2.1,1.2c-2.2,1.5-3.4,3.2-3.4,7.9c0,2.9,0.8,4.9,2.8,4.9c1.9,0,2.7-1.4,2.7-4.9V146.3z"/>
	</g>
</g>
</svg>
