<svg id="Layer_1" data-name="Layer 1" xmlns="http://www.w3.org/2000/svg" viewBox="0 0 168.16 110.06"><title>logo</title><circle cx="70.98" cy="58.72" r="8.42" fill="#83d115"/><rect x="70.47" y="55.55" width="1.22" height="16.08" rx="0.61" fill="#241f20"/><rect x="68.02" y="56.38" width="1.22" height="6.02" rx="0.61" transform="translate(-18.4 85.15) rotate(-57.36)" fill="#241f20"/><rect x="72.5" y="56.81" width="1.22" height="7.05" rx="0.61" transform="translate(60.65 -33.63) rotate(42.91)" fill="#241f20"/><path d="M70.47,67.13h1.22a0,0,0,0,1,0,0v4a.61.61,0,0,1-.61.61h0a.61.61,0,0,1-.61-.61v-4A0,0,0,0,1,70.47,67.13Z" fill="#83d115"/><path d="M51.87,66.59V55.49c0-3.82,1.49-5.74,4.75-6h-5.3c-4.72,0-6.73,1.37-6.73,4.69,0,2.13.93,3.52,2.12,3.9a2.48,2.48,0,0,1-1.4-2.39,2.57,2.57,0,0,1,2.8-2.62,2.6,2.6,0,0,1,2.83,2.68c0,2.07-1.81,2.92-3.35,2.92-2,0-3.5-1.34-3.5-4.7,0-4.4,2.16-8.65,9.33-8.65H64.9c0,2.62-.64,4.17-3.47,4.17h-4v7.57h3.47V53.89h.46v7.34h-.46V57.65H57.47v8.94Z" fill="#fff"/><path d="M82.14,52c2.3,0,3.38.64,3.73,2.13a3.63,3.63,0,0,1,3.62-2.57c1.92,0,3.44,1.4,3.44,3.88,0,2.24-1.4,3.38-2.92,3.38a2.5,2.5,0,0,1-2.59-2.65,2.47,2.47,0,0,1,2.68-2.62,2.24,2.24,0,0,1,2.45,1.89C92.4,53,91,52,89.4,52S86.08,53.07,86,56.1V66.59H80.6V52Z" fill="#fff"/><path d="M99.58,60.79c.35,3.91,1.63,5.28,4,5.28,2.91,0,4.92-2.51,6.12-7l.26.11c-1.37,5.66-3.82,7.87-8.71,7.87-4,0-7.67-2.39-7.67-7.78s3.82-7.67,7.49-7.67,6,1.4,6,4.58c0,3.67-3.06,4.66-6.47,4.66C100.19,60.82,99.87,60.79,99.58,60.79Zm0-.29c2.39-.08,2.85-2.65,2.85-5.16,0-2-.4-3.35-1.28-3.35s-1.63,1.34-1.63,6.41C99.49,59.19,99.52,59.86,99.55,60.5Z" fill="#fff"/><path d="M107,62.16c0-2.21,1.32-3.49,2.89-3.52a32.68,32.68,0,0,0,1.25-4.26c.53-2.18.82-3,2.65-3h3.06c1.08,4.52,3.74,6.67,3.74,10.17,0,3.94-3.15,5.48-8,5.48C109.05,67,107,65.11,107,62.16Zm3.36-3.49a2.81,2.81,0,0,1,2.3,2.85,2.78,2.78,0,0,1-2.92,3.09,2.25,2.25,0,0,1-1.83-.81,4,4,0,0,0,4,2.59c2,0,3-1.25,3-3.61,0-3.06-2.71-6.88-2.82-10.09C111.71,54,111.18,56.42,110.37,58.67Z" fill="#fff"/><path d="M131.59,60.82c-.29,3.18-.9,6.21-4.34,6.21-2.54,0-4.43-.76-4.49-4.49v-10H121V52h1.78V47.13h1.54c2.89,0,3.91,1,3.91,3.41V52h2.16v.53h-2.16V64.67c0,.67.15,1.2.87,1.2.91,0,1.81-1.64,2.16-5.11Z" fill="#fff"/><path d="M63.77,77.46a.89.89,0,0,1-.43.09.49.49,0,0,1-.37-.13.54.54,0,0,1-.14-.42,1.29,1.29,0,0,1-.57.42,1.78,1.78,0,0,1-.7.13,2.42,2.42,0,0,1-.47,0,1.21,1.21,0,0,1-.38-.18.86.86,0,0,1-.25-.31,1,1,0,0,1-.1-.46,1.07,1.07,0,0,1,.11-.51.94.94,0,0,1,.27-.32,1.32,1.32,0,0,1,.4-.18,3,3,0,0,1,.45-.11,4.3,4.3,0,0,1,.46-.07,3.08,3.08,0,0,0,.39-.07.85.85,0,0,0,.27-.13.36.36,0,0,0,.1-.26.61.61,0,0,0-.08-.32.66.66,0,0,0-.19-.18.66.66,0,0,0-.26-.08,1.61,1.61,0,0,0-.91.12.6.6,0,0,0-.27.54h-.6a1.32,1.32,0,0,1,.14-.56A1.14,1.14,0,0,1,61,74a1.48,1.48,0,0,1,.48-.2,2.15,2.15,0,0,1,.58-.07,2.59,2.59,0,0,1,.48,0A1.26,1.26,0,0,1,63,74a.84.84,0,0,1,.32.3,1,1,0,0,1,.11.51v1.86a1.19,1.19,0,0,0,0,.31c0,.07.07.1.16.1a.5.5,0,0,0,.19,0Zm-1-1.86a.64.64,0,0,1-.29.12l-.39.07-.4,0a1.71,1.71,0,0,0-.36.1.79.79,0,0,0-.27.2.64.64,0,0,0-.1.36.45.45,0,0,0,.06.24.44.44,0,0,0,.16.17.63.63,0,0,0,.22.09,1.09,1.09,0,0,0,.26,0A1.52,1.52,0,0,0,62.2,77a1,1,0,0,0,.34-.21,1,1,0,0,0,.2-.26.74.74,0,0,0,.06-.27Z" fill="#fff"/><path d="M64.88,73.86v.57h0a1.26,1.26,0,0,1,1.18-.66,1.61,1.61,0,0,1,.59.1,1.13,1.13,0,0,1,.39.27,1,1,0,0,1,.21.42,2.23,2.23,0,0,1,.06.54v2.38h-.6V75a.69.69,0,0,0-.2-.54A.72.72,0,0,0,66,74.3a1.38,1.38,0,0,0-.48.08,1,1,0,0,0-.33.24A.91.91,0,0,0,65,75a1.63,1.63,0,0,0-.07.45v2h-.59V73.86Z" fill="#fff"/><path d="M70.85,77.48V77h0a.9.9,0,0,1-.47.43,1.73,1.73,0,0,1-.69.13A1.67,1.67,0,0,1,69,77.4a1.5,1.5,0,0,1-.52-.41,1.85,1.85,0,0,1-.31-.61,2.41,2.41,0,0,1-.1-.72,2.48,2.48,0,0,1,.1-.73,1.69,1.69,0,0,1,.3-.6,1.6,1.6,0,0,1,.52-.41,1.67,1.67,0,0,1,.73-.15l.3,0a1.31,1.31,0,0,1,.32.1,1.34,1.34,0,0,1,.31.17,1.05,1.05,0,0,1,.24.27h0V72.48h.6v5Zm-2.14-1.29a1.42,1.42,0,0,0,.2.43,1,1,0,0,0,.36.3,1,1,0,0,0,.5.12,1,1,0,0,0,.51-.12,1.13,1.13,0,0,0,.34-.31,1.34,1.34,0,0,0,.19-.44,2.14,2.14,0,0,0,.06-.5,2.1,2.1,0,0,0-.06-.51,1.19,1.19,0,0,0-.2-.44,1,1,0,0,0-.35-.31,1.22,1.22,0,0,0-.53-.11,1,1,0,0,0-.85.43,1.51,1.51,0,0,0-.18.45,2.24,2.24,0,0,0,0,.52A2,2,0,0,0,68.71,76.19Z" fill="#fff"/><path d="M79.61,71.91a2.38,2.38,0,0,0,.06-.55,1.94,1.94,0,0,0-1.88-2.11c-1.35,0-2,1.38-2,3.9,0,2.76,1,4,2.14,4s2.24-1.58,2.68-3.33l.14,0c-.61,2.65-1.87,3.69-3.63,3.69s-3.71-1.2-3.71-4.31,1.91-4.29,3.76-4.29a2.39,2.39,0,0,1,2.71,2.46c0,1-.52,1.66-1.29,1.66a1.13,1.13,0,1,1,0-2.26,1,1,0,0,1,1.05,1A.34.34,0,0,1,79.61,71.91Z" fill="#83d115"/><path d="M81.5,70.94a1.18,1.18,0,1,1,1.22-1.18A1.17,1.17,0,0,1,81.5,70.94Zm2.86,3.63c-.46,1.62-.68,3-2.11,3s-1.73-.7-1.73-1.94v-4h.82c.89,0,1.28.29,1.28,1.24v3.68c0,.37,0,.57.32.57s.78-.56,1.27-2.54Z" fill="#83d115"/><path d="M87,71.83h-.83v4.78c0,.26.06.47.34.47.52,0,1.18-1.23,1.47-2.81l.15,0c-.28,1.28-.77,3.22-2.33,3.22-1,0-1.71-.3-1.73-1.78V71.83H83.4v-.24h.68V69.66h.6c1.11,0,1.5.4,1.5,1.35v.58H87Z" fill="#83d115"/><path d="M90.1,77.29h-.22c-1.06,0-2-.44-2-2.19V71.59h.59c1.12,0,1.51.51,1.51,1.46v3.11c0,.56.11.93.53.93s.56-.36.56-1.1v-4.4h2.11v6.07c0,1.68-1.37,2.46-2.83,2.46-1.17,0-2.22-.28-2.22-1.29S89.36,77.44,90.1,77.29Zm1-.26c-.14.07-.38.2-.45.25-.48.32-.73.7-.73,1.72,0,.62.18,1.06.59,1.06s.59-.31.59-1.08Z" fill="#83d115"/></svg>